<?xml version="1.0" standalone="no"?>
<!DOCTYPE svg PUBLIC "-//W3C//DTD SVG 20010904//EN"
 "http://www.w3.org/TR/2001/REC-SVG-20010904/DTD/svg10.dtd">
<svg version="1.0" xmlns="http://www.w3.org/2000/svg"
 width="500.000000pt" height="500.000000pt" viewBox="0 0 500.000000 500.000000"
 preserveAspectRatio="xMidYMid meet">
<metadata>
Created by potrace 1.14, written by Peter Selinger 2001-2017
</metadata>
<g transform="translate(0.000000,500.000000) scale(0.100000,-0.100000)"
fill="#000000" stroke="none">
<path d="M0 3304 c0 -1127 3 -1693 10 -1689 6 4 10 -17 10 -57 l0 -63 19 31
c27 44 77 80 158 114 50 21 69 34 71 50 2 14 10 20 20 18 12 -2 18 -15 20 -45
3 -42 2 -43 -45 -65 -67 -32 -162 -130 -197 -205 -16 -34 -26 -68 -23 -76 5
-14 34 -20 172 -41 17 -2 -25 -3 -92 -2 l-123 3 0 -638 0 -639 2500 0 2500 0
0 2500 0 2500 -2500 0 -2500 0 0 -1696z m3824 1614 c-50 -291 -178 -539 -383
-744 -130 -129 -268 -221 -463 -308 l-87 -39 41 -26 c40 -25 47 -26 113 -19
167 20 340 -15 495 -100 19 -11 83 -31 143 -45 132 -32 210 -70 305 -148 128
-106 254 -282 317 -441 16 -40 30 -74 31 -76 1 -2 12 1 23 8 20 10 21 9 21
-64 0 -40 9 -117 20 -169 38 -185 42 -287 29 -659 -10 -281 -10 -350 1 -362
22 -27 4 -84 -34 -107 -27 -16 -36 -31 -56 -95 -12 -41 -38 -107 -56 -146 -19
-38 -31 -74 -28 -80 4 -6 86 -8 228 -5 147 4 189 3 126 -3 -52 -4 -144 -8
-205 -9 -163 -2 -176 -5 -208 -55 -26 -42 -137 -152 -190 -191 l-28 -20 21
-80 c29 -114 25 -108 62 -85 18 11 40 20 48 20 8 -1 1 -7 -15 -14 -33 -14 -80
-64 -90 -95 -5 -18 -10 -17 -73 16 -65 34 -68 37 -91 99 -14 38 -29 64 -38 64
-7 0 -44 -8 -81 -17 -51 -12 -79 -27 -115 -58 -67 -58 -181 -122 -285 -159
-81 -29 -97 -31 -233 -32 -141 -1 -146 -2 -190 -29 -73 -47 -187 -96 -257
-111 -187 -39 -405 4 -554 112 -47 33 -52 35 -106 28 -72 -8 -235 12 -321 38
-100 31 -193 82 -258 141 -50 46 -66 55 -120 64 -128 24 -279 121 -391 253
l-65 77 -150 6 c-83 4 -184 7 -225 7 -42 0 -72 3 -68 7 4 4 101 6 216 4 116
-1 210 0 210 4 0 4 -8 19 -19 33 -49 70 -134 272 -162 384 -6 27 -15 48 -20
48 -8 0 -18 54 -23 135 -2 28 -9 111 -16 185 -23 243 0 569 54 783 124 486
397 773 776 813 48 5 80 15 120 40 30 18 91 45 135 61 74 26 91 28 235 28 150
0 180 5 180 26 0 6 -4 7 -10 4 -5 -3 -8 0 -5 7 3 9 -42 35 -133 79 -426 205
-714 592 -777 1042 l-6 47 1349 0 1349 0 -13 -72z m-3514 -3159 c0 -33 -3 -40
-17 -37 -19 4 -20 42 -1 66 16 19 18 15 18 -29z m558 -954 l0 -40 -9 40 c-4
22 -8 58 -7 80 l0 40 9 -40 c4 -22 8 -58 7 -80z m-309 20 l0 -20 -8 20 c-5 11
-11 36 -15 55 l-6 35 14 -35 c8 -19 15 -44 15 -55z m684 16 c-3 -11 -14 -28
-26 -38 -21 -18 -21 -18 -6 7 9 14 19 31 23 38 11 18 15 15 9 -7z m-235 -75
c20 -21 28 -34 17 -28 -26 13 -59 50 -74 82 -12 24 -11 24 4 5 8 -11 32 -38
53 -59z m1817 -386 c0 -18 -6 -26 -23 -28 -13 -2 -25 3 -28 12 -10 26 4 48 28
44 17 -2 23 -10 23 -28z m739 -43 c8 -12 7 -21 -6 -33 -22 -22 -48 -11 -48 20
0 37 34 45 54 13z m-1019 -87 c0 -18 -6 -26 -23 -28 -13 -2 -25 3 -28 12 -10
26 4 48 28 44 17 -2 23 -10 23 -28z"/>
<path d="M2476 3803 c-1 -1 -62 -3 -135 -4 l-134 -1 -31 -32 c-17 -17 -69 -71
-115 -118 -71 -73 -83 -90 -77 -111 6 -25 34 -41 96 -52 19 -4 70 -23 113 -43
l78 -36 67 22 c159 51 275 62 392 38 105 -22 116 -21 195 27 95 58 94 69 -18
129 -48 26 -122 74 -165 105 -42 32 -83 62 -91 67 -12 7 -168 15 -175 9z"/>
<path d="M1465 2585 l-200 -125 4 -51 c1 -29 6 -72 10 -97 l6 -46 430 -72
c237 -40 431 -71 433 -70 1 2 -73 95 -165 207 -93 113 -199 244 -237 292 -38
48 -72 87 -75 87 -3 0 -96 -56 -206 -125z"/>
<path d="M3254 2638 c-32 -40 -139 -171 -237 -291 -98 -120 -177 -220 -175
-222 2 -2 132 18 288 45 157 26 350 59 430 72 l145 24 8 87 c5 49 7 94 4 100
-4 11 -387 257 -400 257 -2 0 -31 -33 -63 -72z"/>
<path d="M3950 2303 c0 -124 -8 -173 -28 -173 -12 0 -12 -3 -2 -15 10 -12 10
-27 0 -74 -18 -87 -18 -87 -91 -51 -63 32 -63 32 -96 14 -19 -9 -30 -20 -26
-24 5 -4 42 -22 84 -40 65 -28 77 -36 75 -55 -3 -25 -68 -158 -96 -194 l-18
-25 -57 52 c-31 29 -60 52 -64 52 -6 0 -31 -78 -31 -98 0 -4 20 -18 45 -32 29
-16 45 -31 45 -44 0 -18 -141 -166 -158 -166 -5 0 -15 34 -22 75 -7 41 -16 75
-20 75 -9 0 -120 -89 -120 -95 0 -3 12 -30 27 -60 21 -43 25 -60 17 -72 -11
-18 -182 -108 -189 -101 -3 2 -8 37 -11 76 -4 40 -8 72 -9 72 -2 0 -100 -33
-102 -34 -1 -1 6 -31 17 -67 11 -35 20 -69 20 -75 0 -9 -135 -54 -163 -54 -4
0 -7 36 -7 79 l0 80 -62 -28 c-62 -29 -62 -29 -59 -67 7 -91 9 -87 -29 -95
-19 -4 -59 -10 -87 -13 l-53 -7 0 32 c0 31 -1 31 -37 25 -21 -3 -44 -6 -50 -6
-8 0 -13 -13 -13 -30 l0 -30 -76 0 c-84 0 -78 -6 -58 60 6 18 2 20 -47 20 -30
0 -64 3 -76 6 -20 5 -23 1 -29 -35 -6 -40 -8 -41 -46 -41 -36 0 -154 15 -205
25 -21 5 -25 28 -8 56 9 13 -3 59 -15 59 -5 0 -15 -21 -23 -47 -12 -44 -16
-48 -43 -46 -16 1 -76 17 -133 35 l-103 32 6 63 c4 35 4 63 2 63 -3 0 -17 -22
-32 -50 l-27 -49 -31 15 c-84 43 -156 90 -156 102 0 8 14 39 31 69 l31 54 -27
39 c-15 22 -31 40 -35 40 -5 0 -28 -31 -51 -70 l-44 -70 -62 62 c-37 37 -63
71 -63 83 0 12 14 40 31 64 28 37 30 44 18 57 -13 12 -19 7 -49 -42 l-33 -55
-44 67 c-62 97 -64 110 -18 148 l38 32 -17 31 c-23 45 -29 46 -61 13 -16 -17
-32 -30 -35 -30 -8 0 -44 118 -61 198 -6 28 -14 100 -17 160 l-7 107 -51 -80
c-28 -44 -54 -86 -59 -94 -6 -11 0 -12 37 -7 l45 7 6 -93 c3 -51 15 -126 26
-165 28 -96 27 -101 -14 -143 -32 -32 -34 -38 -20 -50 12 -10 21 -8 51 15 19
15 37 25 38 24 2 -2 14 -24 26 -49 13 -25 36 -64 52 -88 37 -54 40 -69 16
-107 -27 -46 -21 -54 12 -15 l30 34 69 -68 c70 -69 78 -89 51 -122 -16 -19 -7
-29 47 -49 46 -18 47 -18 60 2 14 20 16 20 96 -28 45 -27 85 -49 90 -49 12 0
8 -29 -8 -60 l-15 -30 49 -24 c54 -28 61 -24 61 33 0 15 2 30 5 33 3 3 53 -10
110 -28 58 -19 111 -34 120 -34 17 0 20 -27 5 -64 -16 -42 7 -31 30 14 12 23
24 39 29 36 4 -3 63 -13 132 -22 68 -9 127 -21 130 -27 4 -5 2 -25 -3 -44 -15
-54 -7 -75 33 -89 l36 -12 33 74 32 74 103 0 103 0 8 -67 c9 -67 9 -67 42 -69
l32 -2 0 58 c0 82 5 90 54 91 22 0 62 4 88 8 l46 8 7 -56 c4 -31 9 -59 11 -62
2 -4 18 -4 36 0 32 7 33 8 38 70 l5 63 95 24 c52 13 98 24 102 24 5 0 15 -27
25 -60 13 -47 20 -60 36 -60 18 0 19 5 13 72 l-6 73 116 55 c65 30 120 56 123
58 4 1 17 -18 29 -43 21 -43 23 -44 47 -33 15 7 24 17 21 25 -3 7 -8 34 -11
60 l-7 48 50 38 c28 21 82 72 122 113 l71 75 45 -26 c37 -22 48 -24 60 -14 13
11 10 17 -21 49 -19 20 -35 40 -35 46 0 6 25 59 55 119 30 59 55 114 55 122 0
11 7 13 28 8 21 -4 33 -1 45 13 17 18 16 20 -13 32 -34 14 -34 15 -19 94 l12
57 22 -21 c28 -26 30 -26 45 9 15 36 9 48 -30 56 -29 6 -30 9 -30 60 l0 54 51
3 52 3 -77 93 c-43 50 -80 92 -82 92 -2 0 -4 -44 -4 -97z"/>
<path d="M3 1415 c-3 -9 -3 -18 -1 -21 3 -3 8 4 11 16 6 23 -1 27 -10 5z"/>
</g>
</svg>
